<svg xmlns="http://www.w3.org/2000/svg" viewBox="0 0 841.9 595.3"><g fill="#61DAFB"><path d="M666.3 296.5c0 58.9-47.8 106.7-106.7 106.7-58.9 0-106.7-47.8-106.7-106.7s47.8-106.7 106.7-106.7c58.9 0 106.7 47.8 106.7 106.7z"/><path d="M666.3 296.5c0 58.9-47.8 106.7-106.7 106.7-58.9 0-106.7-47.8-106.7-106.7s47.8-106.7 106.7-106.7c58.9 0 106.7 47.8 106.7 106.7z" opacity=".1"/><path d="M421.9 296.5c0 58.9-47.8 106.7-106.7 106.7-58.9 0-106.7-47.8-106.7-106.7s47.8-106.7 106.7-106.7c58.9 0 106.7 47.8 106.7 106.7z" opacity=".1"/><path d="M421.9 296.5c0 58.9-47.8 106.7-106.7 106.7-58.9 0-106.7-47.8-106.7-106.7s47.8-106.7 106.7-106.7c58.9 0 106.7 47.8 106.7 106.7z" opacity=".1"/><path d="M666.3 296.5c0 58.9-47.8 106.7-106.7 106.7-58.9 0-106.7-47.8-106.7-106.7s47.8-106.7 106.7-106.7c58.9 0 106.7 47.8 106.7 106.7z" opacity=".1"/></g></svg>